<?xml version="1.0" encoding="UTF-8"?>
<!DOCTYPE svg PUBLIC "-//W3C//DTD SVG 1.1//EN" "http://www.w3.org/Graphics/SVG/1.1/DTD/svg11.dtd">
<svg version="1.2" width="5mm" height="5mm" viewBox="0 0 500 500" preserveAspectRatio="xMidYMid" fill-rule="evenodd" stroke-width="28.222" stroke-linejoin="round" xmlns="http://www.w3.org/2000/svg" xmlns:ooo="http://xml.openoffice.org/svg/export" xmlns:xlink="http://www.w3.org/1999/xlink" xmlns:presentation="http://sun.com/xmlns/staroffice/presentation" xmlns:smil="http://www.w3.org/2001/SMIL20/" xmlns:anim="urn:oasis:names:tc:opendocument:xmlns:animation:1.0" xmlns:svg="urn:oasis:names:tc:opendocument:xmlns:svg-compatible:1.0" xml:space="preserve">
 <defs class="ClipPathGroup">
  <clipPath id="presentation_clip_path" clipPathUnits="userSpaceOnUse">
   <rect x="0" y="0" width="500" height="500"/>
  </clipPath>
  <clipPath id="presentation_clip_path_shrink" clipPathUnits="userSpaceOnUse">
   <rect x="0" y="0" width="499" height="499"/>
  </clipPath>
 </defs>
 <defs class="TextShapeIndex">
  <g ooo:slide="id1" ooo:id-list="id3 id4 id5"/>
 </defs>
 <defs class="EmbeddedBulletChars">
  <g id="bullet-char-template-57356" transform="scale(0.00048828125,-0.00048828125)">
   <path d="M 580,1141 L 1163,571 580,0 -4,571 580,1141 Z"/>
  </g>
  <g id="bullet-char-template-57354" transform="scale(0.00048828125,-0.00048828125)">
   <path d="M 8,1128 L 1137,1128 1137,0 8,0 8,1128 Z"/>
  </g>
  <g id="bullet-char-template-10146" transform="scale(0.00048828125,-0.00048828125)">
   <path d="M 174,0 L 602,739 174,1481 1456,739 174,0 Z M 1358,739 L 309,1346 659,739 1358,739 Z"/>
  </g>
  <g id="bullet-char-template-10132" transform="scale(0.00048828125,-0.00048828125)">
   <path d="M 2015,739 L 1276,0 717,0 1260,543 174,543 174,936 1260,936 717,1481 1274,1481 2015,739 Z"/>
  </g>
  <g id="bullet-char-template-10007" transform="scale(0.00048828125,-0.00048828125)">
   <path d="M 0,-2 C -7,14 -16,27 -25,37 L 356,567 C 262,823 215,952 215,954 215,979 228,992 255,992 264,992 276,990 289,987 310,991 331,999 354,1012 L 381,999 492,748 772,1049 836,1024 860,1049 C 881,1039 901,1025 922,1006 886,937 835,863 770,784 769,783 710,716 594,584 L 774,223 C 774,196 753,168 711,139 L 727,119 C 717,90 699,76 672,76 641,76 570,178 457,381 L 164,-76 C 142,-110 111,-127 72,-127 30,-127 9,-110 8,-76 1,-67 -2,-52 -2,-32 -2,-23 -1,-13 0,-2 Z"/>
  </g>
  <g id="bullet-char-template-10004" transform="scale(0.00048828125,-0.00048828125)">
   <path d="M 285,-33 C 182,-33 111,30 74,156 52,228 41,333 41,471 41,549 55,616 82,672 116,743 169,778 240,778 293,778 328,747 346,684 L 369,508 C 377,444 397,411 428,410 L 1163,1116 C 1174,1127 1196,1133 1229,1133 1271,1133 1292,1118 1292,1087 L 1292,965 C 1292,929 1282,901 1262,881 L 442,47 C 390,-6 338,-33 285,-33 Z"/>
  </g>
  <g id="bullet-char-template-9679" transform="scale(0.00048828125,-0.00048828125)">
   <path d="M 813,0 C 632,0 489,54 383,161 276,268 223,411 223,592 223,773 276,916 383,1023 489,1130 632,1184 813,1184 992,1184 1136,1130 1245,1023 1353,916 1407,772 1407,592 1407,412 1353,268 1245,161 1136,54 992,0 813,0 Z"/>
  </g>
  <g id="bullet-char-template-8226" transform="scale(0.00048828125,-0.00048828125)">
   <path d="M 346,457 C 273,457 209,483 155,535 101,586 74,649 74,723 74,796 101,859 155,911 209,963 273,989 346,989 419,989 480,963 531,910 582,859 608,796 608,723 608,648 583,586 532,535 482,483 420,457 346,457 Z"/>
  </g>
  <g id="bullet-char-template-8211" transform="scale(0.00048828125,-0.00048828125)">
   <path d="M -4,459 L 1135,459 1135,606 -4,606 -4,459 Z"/>
  </g>
  <g id="bullet-char-template-61548" transform="scale(0.00048828125,-0.00048828125)">
   <path d="M 173,740 C 173,903 231,1043 346,1159 462,1274 601,1332 765,1332 928,1332 1067,1274 1183,1159 1299,1043 1357,903 1357,740 1357,577 1299,437 1183,322 1067,206 928,148 765,148 601,148 462,206 346,322 231,437 173,577 173,740 Z"/>
  </g>
 </defs>
 <g>
  <g id="id2" class="Master_Slide">
   <g id="bg-id2" class="Background"/>
   <g id="bo-id2" class="BackgroundObjects"/>
  </g>
 </g>
 <g class="SlideGroup">
  <g>
   <g id="container-id1">
    <g id="id1" class="Slide" clip-path="url(#presentation_clip_path)">
     <g class="Page">
      <g class="com.sun.star.drawing.CustomShape">
       <g id="id3">
        <rect class="BoundingBox" stroke="none" fill="none" x="0" y="0" width="502" height="502"/>
        <path fill="rgb(0,0,0)" stroke="none" d="M 83,0 L 83,0 C 69,0 54,4 42,11 29,19 19,29 11,42 4,54 0,69 0,84 L 0,417 0,417 C 0,432 4,447 11,459 19,472 29,482 42,490 54,497 69,501 84,501 L 417,501 417,501 C 432,501 447,497 459,490 472,482 482,472 490,459 497,447 501,432 501,417 L 501,83 501,84 501,83 C 501,69 497,54 490,42 482,29 472,19 459,11 447,4 432,0 417,0 L 83,0 Z"/>
       </g>
      </g>
      <g class="Group">
       <g class="com.sun.star.drawing.CustomShape">
        <g id="id4">
         <rect class="BoundingBox" stroke="none" fill="none" x="27" y="28" width="272" height="272"/>
         <path fill="rgb(255,255,0)" stroke="none" d="M 81,42 L 82,42 C 74,42 67,44 61,47 55,51 50,56 46,62 43,68 41,75 41,83 L 41,244 41,244 C 41,252 43,259 46,265 50,271 55,276 61,280 67,283 74,285 82,285 L 243,285 243,285 C 251,285 258,283 264,280 270,276 275,271 279,265 282,259 284,252 284,244 L 284,82 284,83 284,83 C 284,75 282,68 279,62 275,56 270,51 264,47 258,44 251,42 243,42 L 81,42 Z"/>
         <path fill="none" stroke="rgb(255,255,255)" stroke-width="28" stroke-linejoin="round" d="M 81,42 L 82,42 C 74,42 67,44 61,47 55,51 50,56 46,62 43,68 41,75 41,83 L 41,244 41,244 C 41,252 43,259 46,265 50,271 55,276 61,280 67,283 74,285 82,285 L 243,285 243,285 C 251,285 258,283 264,280 270,276 275,271 279,265 282,259 284,252 284,244 L 284,82 284,83 284,83 C 284,75 282,68 279,62 275,56 270,51 264,47 258,44 251,42 243,42 L 81,42 Z"/>
        </g>
       </g>
       <g class="com.sun.star.drawing.CustomShape">
        <g id="id5">
         <rect class="BoundingBox" stroke="none" fill="none" x="204" y="203" width="272" height="272"/>
         <path fill="rgb(255,255,255)" stroke="none" d="M 258,217 L 258,217 C 251,217 244,219 238,222 232,226 227,231 223,237 220,243 218,250 218,258 L 218,419 218,419 C 218,427 220,434 223,440 227,446 232,451 238,455 244,458 251,460 258,460 L 420,460 421,460 C 428,460 435,458 441,455 447,451 452,446 456,440 459,434 461,427 461,419 L 461,257 461,258 461,258 C 461,250 459,243 456,237 452,231 447,226 441,222 435,219 428,217 421,217 L 258,217 Z"/>
         <path fill="none" stroke="rgb(255,255,0)" stroke-width="28" stroke-linejoin="round" d="M 258,217 L 258,217 C 251,217 244,219 238,222 232,226 227,231 223,237 220,243 218,250 218,258 L 218,419 218,419 C 218,427 220,434 223,440 227,446 232,451 238,455 244,458 251,460 258,460 L 420,460 421,460 C 428,460 435,458 441,455 447,451 452,446 456,440 459,434 461,427 461,419 L 461,257 461,258 461,258 C 461,250 459,243 456,237 452,231 447,226 441,222 435,219 428,217 421,217 L 258,217 Z"/>
        </g>
       </g>
      </g>
     </g>
    </g>
   </g>
  </g>
 </g>
</svg>